<svg width="703" height="182" viewBox="0 0 703 182" fill="none" xmlns="http://www.w3.org/2000/svg">
<g clip-path="url(#clip0_64_23)">
<path d="M97.9741 44.3912C110.803 43.5406 122.434 47.8693 132.056 56.358C145.172 67.9296 152.389 85.4855 153.452 102.775C154.568 120.927 149.82 140.451 137.614 154.286C148.559 151.014 158.321 146.337 168.413 141.067C169.047 141.044 169.766 140.988 170.353 141.265C171.234 141.681 171.225 141.906 171.532 142.78C170.898 146.616 167.334 150.235 164.457 152.647C145.592 168.461 105.338 170.574 81.8413 168.394C70.9211 167.553 57.8412 165.468 48.1343 160.154C56.1003 160.003 64.5829 162.02 72.5962 162.588C64.3106 155.004 58.4204 146.542 55.4409 135.555C52.23 123.716 53.352 110.673 59.4722 99.9518C64.2705 91.3554 72.3022 85.0475 81.77 82.4401C92.2217 79.6175 101.797 81.1936 111.059 86.567C108.425 81.877 105.256 77.6672 100.969 74.3707C89.9898 65.9283 74.1758 65.3525 61.022 67.0992C61.7605 65.942 62.5396 64.8114 63.3579 63.7096C71.5672 52.8627 82.2485 46.4358 95.7017 44.5709C96.4584 44.5018 97.216 44.4422 97.9741 44.3912ZM89.8501 102.419C88.8907 102.198 87.8676 102.243 86.8901 102.291C83.6511 104.487 81.5925 106.817 80.8296 110.824C80.2924 113.646 80.7033 116.973 82.3765 119.366C83.5998 121.115 85.7328 122.667 87.8569 123.038C88.6985 123.185 89.585 123.138 90.4341 123.085C93.5985 121.143 95.5252 119.223 96.4429 115.449C97.1594 112.501 96.8978 109.011 95.272 106.391C94.0827 104.475 92.0564 102.926 89.8501 102.419Z" fill="#1747B0"/>
<path d="M59.9058 20.4788C84.8943 10.2014 116.192 8.65727 141.336 19.2258C148.989 22.4426 165.865 31.32 169.036 39.3411C169.52 40.5663 169.628 41.9323 169.103 43.1623C168.508 44.5572 167.073 45.9769 165.663 46.5325C164.181 47.1161 162.491 46.9333 161.056 46.2952C154.807 43.5152 149.02 40.1318 142.564 37.7571C118.972 29.0798 89.9399 27.3265 66.2378 36.2971C49.634 42.5813 35.5521 53.5599 24.0289 66.9827C21.8046 69.5735 16.1231 77.7314 12.4849 77.675C12.2343 77.3785 11.9715 77.2053 12.0025 76.8C12.5371 69.8405 27.8166 52.7163 33.0816 47.6457L32.8521 46.9133L32.9322 46.7395C32.9032 46.7983 32.8771 46.8563 32.8531 46.9133L33.0816 47.6457C39.9145 41.7531 46.8824 36.2803 54.9205 32.1125C60.3225 29.3115 65.9907 27.0976 71.2984 24.0998C55.8265 27.645 40.4144 34.3249 28.6021 45.217L29.7955 45.4768V45.4778L28.6021 45.217L27.4273 44.887C27.3321 44.6596 26.9789 44.0185 27.0601 43.8176C27.8552 41.8634 29.8978 40.1696 31.4029 38.7288C39.7237 30.7639 49.2981 24.8417 59.9058 20.4788ZM33.5435 45.7952C33.4917 45.8618 33.4426 45.9282 33.3951 45.9934L33.2584 46.1868C33.3015 46.1231 33.3466 46.0585 33.3941 45.9934L33.5435 45.7952ZM34.6919 44.5246C34.5422 44.6728 34.3998 44.8193 34.2642 44.9631L33.8804 45.387C34.0008 45.248 34.1286 45.106 34.2642 44.9621L34.6919 44.5246ZM44.7818 36.9709C44.3358 37.2586 43.8814 37.5558 43.4224 37.8596L42.0367 38.7893C42.4997 38.4738 42.9625 38.1624 43.4214 37.8586L44.7818 36.9709ZM52.1431 32.7512C51.5908 32.9723 51.0362 33.1846 50.4878 33.4768L50.2525 33.6067C50.5646 33.4255 50.8793 33.2748 51.1949 33.1379L52.1431 32.7512Z" fill="#1747B0"/>
<path d="M244.376 60.576C245.997 60.32 247.939 60.1493 250.2 60.064C252.504 59.936 254.509 59.872 256.216 59.872C257.837 59.872 259.8 59.936 262.104 60.064C264.451 60.1493 266.435 60.3627 268.056 60.704L295.576 146.656C294.168 147.467 292.333 148.064 290.072 148.448C287.853 148.875 285.784 149.088 283.864 149.088C280.621 149.088 278.083 148.341 276.248 146.848C274.413 145.355 272.877 142.411 271.64 138.016L262.488 105.568C261.507 101.984 260.355 97.7813 259.032 92.96C257.752 88.096 256.557 83.5307 255.448 79.264H254.68C254.253 81.6107 253.677 84.2347 252.952 87.136C252.227 90.0373 251.459 92.9387 250.648 95.84C249.88 98.6987 249.155 101.301 248.472 103.648L235.416 148.128C234.136 148.427 232.771 148.619 231.32 148.704C229.869 148.789 228.333 148.832 226.712 148.832C225.176 148.832 223.427 148.725 221.464 148.512C219.544 148.299 218.008 147.979 216.856 147.552L216.088 146.4L244.376 60.576ZM245.912 129.696C245.315 129.696 244.611 129.696 243.8 129.696C243.032 129.653 242.243 129.632 241.432 129.632C240.664 129.589 239.981 129.568 239.384 129.568H228.632L234.84 113.632H244.312C244.909 113.632 245.592 113.632 246.36 113.632C247.128 113.589 247.896 113.568 248.664 113.568C249.432 113.525 250.115 113.504 250.712 113.504H260.056C260.696 113.504 261.379 113.525 262.104 113.568C262.872 113.568 263.64 113.589 264.408 113.632C265.219 113.632 265.923 113.632 266.52 113.632H276.312L281.496 129.568H270.744C270.147 129.568 269.443 129.589 268.632 129.632C267.821 129.632 267.011 129.653 266.2 129.696C265.432 129.696 264.749 129.696 264.152 129.696H245.912ZM312.689 83.232C316.529 83.232 319.409 84.5547 321.329 87.2C323.292 89.8027 324.273 93.3227 324.273 97.76V148C322.865 148.256 321.265 148.427 319.473 148.512C317.724 148.64 315.996 148.704 314.289 148.704C312.625 148.704 310.897 148.64 309.105 148.512C307.356 148.427 305.734 148.256 304.241 148V84.128L305.137 83.232H312.689ZM359.281 132C359.281 134.475 359.516 136.821 359.985 139.04C360.454 141.216 361.286 143.115 362.481 144.736C361.03 145.931 359.217 146.955 357.041 147.808C354.865 148.619 352.518 149.024 350.001 149.024C345.99 149.024 343.196 147.957 341.617 145.824C340.038 143.691 339.249 140.64 339.249 136.672V109.408C339.249 106.507 338.865 104.373 338.097 103.008C337.372 101.6 335.942 100.896 333.809 100.896C332.486 100.896 330.95 101.259 329.201 101.984C327.494 102.709 325.766 103.883 324.017 105.504C322.31 107.083 320.796 109.216 319.473 111.904V94.368C322.502 91.4667 325.766 88.8427 329.265 86.496C332.806 84.1493 336.838 82.976 341.361 82.976C345.286 82.976 348.572 83.9573 351.217 85.92C353.862 87.84 355.868 90.5067 357.233 93.92C358.598 97.3333 359.281 101.28 359.281 105.76V132ZM397.281 148C395.873 148.256 394.294 148.427 392.545 148.512C390.796 148.64 389.046 148.704 387.297 148.704C385.633 148.704 383.905 148.64 382.113 148.512C380.364 148.427 378.742 148.256 377.249 148V105.632C377.249 103.499 376.801 101.728 375.905 100.32C375.052 98.912 373.494 98.208 371.233 98.208H369.313C368.758 96.032 368.481 93.7707 368.481 91.424C368.481 90.3147 368.545 89.1413 368.673 87.904C368.801 86.624 369.014 85.408 369.313 84.256C371.276 84.0427 373.281 83.8933 375.329 83.808C377.42 83.68 379.169 83.616 380.577 83.616H383.329C387.638 83.616 391.03 85.0027 393.505 87.776C396.022 90.5067 397.281 94.2187 397.281 98.912V148ZM373.409 66.144C373.409 64.9493 373.537 63.712 373.793 62.432C374.049 61.1093 374.412 59.8507 374.881 58.656C375.99 58.1013 377.42 57.632 379.169 57.248C380.961 56.864 382.71 56.672 384.417 56.672C386.166 56.672 387.937 56.864 389.729 57.248C391.564 57.632 392.972 58.1013 393.953 58.656C394.422 59.8507 394.785 61.1307 395.041 62.496C395.297 63.8187 395.425 65.0347 395.425 66.144C395.425 67.296 395.297 68.5333 395.041 69.856C394.785 71.1787 394.422 72.416 393.953 73.568C392.972 74.1227 391.564 74.592 389.729 74.976C387.937 75.36 386.166 75.552 384.417 75.552C382.71 75.552 380.94 75.3813 379.105 75.04C377.27 74.656 375.862 74.1653 374.881 73.568C374.412 72.416 374.049 71.1787 373.793 69.856C373.537 68.5333 373.409 67.296 373.409 66.144ZM460.174 95.392C460.259 91.8507 459.897 88.5227 459.086 85.408C458.318 82.2507 456.889 79.712 454.798 77.792C452.75 75.8293 449.827 74.848 446.03 74.848C440.569 74.848 436.665 77.408 434.318 82.528C432.014 87.648 430.862 95.0507 430.862 104.736C430.862 113.867 432.377 120.715 435.406 125.28C438.478 129.803 442.809 132.064 448.398 132.064C452.835 132.064 456.825 131.125 460.366 129.248C463.907 127.371 467.171 125.323 470.158 123.104C472.163 124.427 474.126 126.368 476.046 128.928C477.966 131.445 479.139 133.899 479.566 136.288C477.091 138.72 474.019 140.96 470.35 143.008C466.723 145.056 462.713 146.72 458.318 148C453.923 149.237 449.358 149.856 444.622 149.856C437.923 149.856 432.291 148.555 427.726 145.952C423.203 143.349 419.598 139.872 416.91 135.52C414.222 131.125 412.281 126.261 411.086 120.928C409.934 115.552 409.358 110.112 409.358 104.608C409.358 93.856 411.065 85.1093 414.478 78.368C417.891 71.584 422.414 66.592 428.046 63.392C433.721 60.192 439.971 58.592 446.798 58.592C453.411 58.592 459.171 59.7653 464.078 62.112C469.027 64.4587 472.846 67.6373 475.534 71.648C478.265 75.6587 479.63 80.1813 479.63 85.216C479.63 89.2267 478.585 92.1067 476.494 93.856C474.446 95.6053 471.587 96.48 467.918 96.48C466.467 96.48 465.123 96.3733 463.886 96.16C462.649 95.9467 461.411 95.6907 460.174 95.392ZM509.95 148C508.542 148.256 506.985 148.427 505.278 148.512C503.571 148.64 501.822 148.704 500.03 148.704C498.451 148.704 496.83 148.64 495.166 148.512C493.502 148.427 491.902 148.256 490.366 148V54.688L491.262 53.792H499.07C502.995 53.792 505.79 54.688 507.454 56.48C509.118 58.272 509.95 61.3867 509.95 65.824V148ZM544.958 132C544.958 134.475 545.193 136.821 545.662 139.04C546.131 141.216 546.942 143.115 548.094 144.736C546.643 145.931 544.83 146.955 542.654 147.808C540.478 148.619 538.131 149.024 535.614 149.024C531.603 149.024 528.809 147.957 527.23 145.824C525.694 143.691 524.926 140.64 524.926 136.672V109.408C524.926 106.507 524.542 104.373 523.774 103.008C523.006 101.6 521.555 100.896 519.422 100.896C518.099 100.896 516.563 101.259 514.814 101.984C513.107 102.709 511.379 103.883 509.63 105.504C507.923 107.083 506.43 109.216 505.15 111.904V94.432C508.137 91.488 511.379 88.8427 514.878 86.496C518.419 84.1493 522.473 82.976 527.038 82.976C530.921 82.976 534.185 83.9573 536.83 85.92C539.518 87.84 541.545 90.5067 542.91 93.92C544.275 97.3333 544.958 101.28 544.958 105.76V132ZM556.09 130.528C556.09 125.365 557.285 121.163 559.674 117.92C562.063 114.635 565.178 112.203 569.018 110.624C572.901 109.045 577.039 108.256 581.434 108.256C583.354 108.256 585.765 108.299 588.666 108.384C591.61 108.469 594.255 108.747 596.602 109.216V121.888C594.767 121.461 592.549 121.227 589.946 121.184C587.386 121.099 585.253 121.056 583.546 121.056C580.687 121.056 578.639 121.824 577.402 123.36C576.165 124.853 575.546 126.795 575.546 129.184C575.546 130.891 576.058 132.32 577.082 133.472C578.149 134.581 579.599 135.136 581.434 135.136C583.994 135.136 586.597 134.219 589.242 132.384C591.887 130.549 594.127 128.032 595.962 124.832L598.778 137.504C597.114 139.467 595.215 141.408 593.082 143.328C590.949 145.205 588.453 146.763 585.594 148C582.735 149.237 579.386 149.856 575.546 149.856C571.151 149.856 567.503 148.896 564.602 146.976C561.743 145.013 559.61 142.56 558.202 139.616C556.794 136.629 556.09 133.6 556.09 130.528ZM614.138 138.72C613.797 140.512 613.007 142.432 611.77 144.48C610.533 146.528 609.295 148.043 608.058 149.024C604.303 148.939 601.189 148.085 598.714 146.464C596.282 144.843 594.405 142.859 593.082 140.512C591.802 138.123 590.97 135.797 590.586 133.536V106.144C590.586 103.499 589.903 101.493 588.538 100.128C587.215 98.72 585.103 98.016 582.202 98.016C579.471 98.016 576.485 98.464 573.242 99.36C569.999 100.213 566.693 101.131 563.322 102.112C561.914 100.491 560.805 98.4 559.994 95.84C559.226 93.2373 558.735 90.6987 558.522 88.224C561.423 87.0293 564.623 86.0267 568.122 85.216C571.621 84.3627 575.098 83.7227 578.554 83.296C582.01 82.8267 585.103 82.592 587.834 82.592C591.589 82.592 595.194 83.296 598.65 84.704C602.106 86.0693 604.943 88.352 607.162 91.552C609.423 94.7093 610.554 98.9973 610.554 104.416V130.464C610.554 132.299 610.853 133.92 611.45 135.328C612.047 136.736 612.943 137.867 614.138 138.72ZM633.939 83.232C637.779 83.232 640.659 84.5547 642.579 87.2C644.542 89.8027 645.523 93.3227 645.523 97.76V148C644.115 148.256 642.515 148.427 640.723 148.512C638.974 148.64 637.246 148.704 635.539 148.704C633.875 148.704 632.147 148.64 630.355 148.512C628.606 148.427 626.984 148.256 625.491 148V84.128L626.387 83.232H633.939ZM680.531 132C680.531 134.475 680.766 136.821 681.235 139.04C681.704 141.216 682.536 143.115 683.731 144.736C682.28 145.931 680.467 146.955 678.291 147.808C676.115 148.619 673.768 149.024 671.251 149.024C667.24 149.024 664.446 147.957 662.867 145.824C661.288 143.691 660.499 140.64 660.499 136.672V109.408C660.499 106.507 660.115 104.373 659.347 103.008C658.622 101.6 657.192 100.896 655.059 100.896C653.736 100.896 652.2 101.259 650.451 101.984C648.744 102.709 647.016 103.883 645.267 105.504C643.56 107.083 642.046 109.216 640.723 111.904V94.368C643.752 91.4667 647.016 88.8427 650.515 86.496C654.056 84.1493 658.088 82.976 662.611 82.976C666.536 82.976 669.822 83.9573 672.467 85.92C675.112 87.84 677.118 90.5067 678.483 93.92C679.848 97.3333 680.531 101.28 680.531 105.76V132Z" fill="#1747B0"/>
</g>
<defs>
<clipPath id="clip0_64_23">
<rect width="703" height="182" fill="white"/>
</clipPath>
</defs>
</svg>
