<svg width="177" height="182" viewBox="0 0 177 182" fill="none" xmlns="http://www.w3.org/2000/svg">
<path d="M94.9746 44.3909C107.803 43.5403 119.435 47.869 129.057 56.3577C142.172 67.9293 149.389 85.4851 150.452 102.775C151.568 120.927 146.821 140.451 134.614 154.285C145.56 151.014 155.321 146.337 165.413 141.067C166.048 141.043 166.767 140.988 167.354 141.265C168.235 141.681 168.225 141.906 168.532 142.78C167.898 146.616 164.335 150.234 161.457 152.647C142.593 168.461 102.338 170.574 78.8418 168.394C67.9215 167.553 54.8408 165.468 45.1338 160.154C53.0999 160.003 61.5832 162.02 69.5967 162.588C61.311 155.004 55.4209 146.541 52.4414 135.555C49.2305 123.715 50.3524 110.673 56.4727 99.9514C61.271 91.355 69.3027 85.0471 78.7705 82.4397C89.2221 79.6171 98.7971 81.1933 108.06 86.5666C105.426 81.8767 102.257 77.6668 97.9697 74.3704C86.9902 65.9279 71.1763 65.3522 58.0225 67.0989C58.7609 65.9418 59.5402 64.8119 60.3584 63.7102C68.5677 52.8632 79.2489 46.4354 92.7021 44.5706C93.4589 44.5014 94.2165 44.4418 94.9746 44.3909ZM86.8506 102.418C85.8912 102.197 84.8681 102.243 83.8906 102.29C80.6516 104.487 78.593 106.816 77.8301 110.823C77.2929 113.646 77.7038 116.972 79.377 119.365C80.6003 121.115 82.7332 122.667 84.8574 123.038C85.699 123.185 86.5855 123.137 87.4346 123.084C90.599 121.143 92.5257 119.223 93.4434 115.448C94.1599 112.501 93.8983 109.011 92.2725 106.391C91.0832 104.475 89.0569 102.926 86.8506 102.418Z" fill="#1747B0"/>
<path d="M56.9068 20.4792C81.8951 10.2019 113.192 8.65692 138.335 19.2253C145.988 22.442 162.865 31.3195 166.036 39.3405C166.52 40.5659 166.628 41.9316 166.103 43.1618C165.507 44.5567 164.074 45.9774 162.663 46.5329C161.18 47.1164 159.491 46.9329 158.056 46.2946C151.807 43.5146 146.02 40.1313 139.564 37.7565C115.972 29.0793 86.9408 27.3261 63.2388 36.2966C46.6348 42.5808 32.5522 53.5592 21.0289 66.9821C18.8047 69.5729 13.124 77.7307 9.48589 77.6745C9.23522 77.3779 8.97152 77.2048 9.00249 76.7995C9.52069 70.0572 23.877 53.7755 29.5601 48.155L30.0826 47.6452C36.9154 41.7526 43.8825 36.2797 51.9205 32.112C57.3225 29.311 62.9906 27.0971 68.2984 24.0993C52.8264 27.6445 37.4143 34.3243 25.6021 45.2165L24.4273 44.8864C24.3319 44.6588 23.9787 44.0177 24.0601 43.8171C24.8552 41.8628 26.8978 40.1691 28.4029 38.7282C36.7238 30.7633 46.299 24.8422 56.9068 20.4792ZM30.2583 46.1872C30.1289 46.3783 30.0202 46.5626 29.9332 46.739L29.8531 46.9128C29.9493 46.6845 30.0855 46.4414 30.2583 46.1862V46.1872ZM31.6929 44.5251C31.5434 44.673 31.4006 44.8189 31.2652 44.9626L30.8804 45.3864C31.0006 45.2476 31.1288 45.1063 31.2642 44.9626L31.6929 44.5251ZM40.4224 37.8591C38.5866 39.0741 36.6825 40.4006 34.9966 41.7009L34.3746 42.1872C35.798 41.0569 37.4159 39.8932 39.0367 38.7888L40.4224 37.8591ZM48.1958 33.1374C47.8802 33.2743 47.5657 33.4258 47.2535 33.6071L46.4253 34.0925C46.7291 33.9122 47.0065 33.75 47.2525 33.6071C47.4087 33.5164 47.5659 33.4326 47.7232 33.3552L48.1958 33.1374ZM50.9205 31.3288L51.0142 31.82C50.8617 31.9232 50.7078 32.0173 50.5533 32.1042L50.3199 32.2292C50.5529 32.1087 50.7843 31.9749 51.0132 31.82L50.9205 31.3288ZM49.938 31.1794C50.0995 31.1758 50.2516 31.1839 50.3931 31.2038C50.2516 31.1839 50.0994 31.1758 49.938 31.1794Z" fill="#1747B0"/>
</svg>
